<svg t="1632150005503" class="icon" viewBox="0 0 1024 1024" version="1.1" xmlns="http://www.w3.org/2000/svg" p-id="1802" width="32" height="32"><path d="M790.219559 288.13335c0-55.914474-43.894719-55.914474-43.894719-55.914474L274.838555 232.218876c0 0-43.928488 0-43.928488 55.914474l0 55.954383 559.310515 0L790.220582 288.13335 790.219559 288.13335 790.219559 288.13335zM633.56673 120.355135 387.472845 120.355135c0 0-44.706201 0-44.706201 55.93187l335.595314 0C678.361959 120.355135 633.532961 120.355135 633.56673 120.355135L633.56673 120.355135 633.56673 120.355135zM902.088416 344.086709l-55.93187 55.92573L174.978197 400.01244l-55.936987-55.92573L63.10934 344.086709 73.7814 448.774003c0 0 61.854766 366.598422 69.428256 408.55807 8.4126 46.037523 54.634318 45.400003 54.634318 45.400003l625.443725 0c0 0 46.255487 0.665149 54.639434-45.400003 7.634888-41.959647 69.455885-408.55807 69.455885-408.55807l10.638291-104.687294L902.088416 344.086709zM678.361959 623.745037c0 0-11.242042 55.92573-55.93187 55.92573L398.704654 679.670767c-30.53341 0-55.936987-55.92573-55.936987-55.92573l0-55.936987 55.936987 0 0 55.936987L622.430088 623.745037l0-55.936987 55.93187 0L678.361959 623.745037z" p-id="1803" fill="#363636"></path></svg>